<svg xmlns="http://www.w3.org/2000/svg" width="512" height="512" viewBox="0 0 512 512" role="img" aria-label="带节奏">
<!-- 候选 C「指挥棒」:一只手的指挥手势 = 带节奏的那只手,K线随之起落
     叙事最贴题("你扮演带节奏的那只手"),但小尺寸最吃亏。 -->
  <rect width="512" height="512" rx="8" fill="#f4ecd8"/>
  <pattern id="ht3" width="14" height="14" patternUnits="userSpaceOnUse">
    <circle cx="2" cy="2" r="2" fill="#1d1a16" opacity="0.055"/>
  </pattern>
  <rect width="512" height="512" rx="8" fill="url(#ht3)"/>
  <rect x="20" y="20" width="472" height="472" rx="6" fill="none" stroke="#1d1a16" stroke-width="6" opacity="0.28"/>

  <!-- 底部台面线:交易台 -->
  <rect x="64" y="430" width="384" height="8" rx="2" fill="#1d1a16" opacity="0.5"/>

  <!-- 阶梯上行的蜡烛(被指挥的节奏),朱红实体 -->
  <g fill="#c2261d">
    <rect x="96"  y="330" width="12" height="86" rx="2"/>
    <rect x="84"  y="348" width="36" height="50" rx="2"/>
    <rect x="164" y="286" width="12" height="130" rx="2"/>
    <rect x="152" y="304" width="36" height="94" rx="2"/>
    <rect x="232" y="230" width="12" height="186" rx="2"/>
    <rect x="220" y="248" width="36" height="150" rx="2"/>
  </g>
  <!-- 一根绿柱作对照,锁死"红涨绿跌"语义 -->
  <g fill="#0f6b3a">
    <rect x="300" y="268" width="12" height="148" rx="2"/>
    <rect x="288" y="286" width="36" height="76" rx="2"/>
  </g>

  <!-- 指挥棒:自右上斜下,金色硬边 -->
  <g>
    <rect x="300" y="96" width="150" height="18" rx="4" fill="#8a6410"
          transform="rotate(28 375 105)"/>
    <!-- 棒头小球 -->
    <circle cx="452" cy="176" r="16" fill="#8a6410"/>
  </g>
  <!-- 挥动轨迹:三道渐弱弧线(墨线,不用渐变) -->
  <g fill="none" stroke="#1d1a16" stroke-linecap="round">
    <path d="M286 112 q-34 22 -40 62" stroke-width="10" opacity="0.42"/>
    <path d="M258 96  q-46 28 -54 78" stroke-width="8"  opacity="0.26"/>
    <path d="M232 82  q-56 32 -66 92" stroke-width="6"  opacity="0.14"/>
  </g>
</svg>
